<mxfile host="65bd71144e">
    <diagram id="c2fJ8QVn-92O79DiVzgd" name="Page-1">
        <mxGraphModel dx="819" dy="1545" grid="1" gridSize="10" guides="1" tooltips="1" connect="1" arrows="1" fold="1" page="1" pageScale="1" pageWidth="850" pageHeight="1100" math="0" shadow="0">
            <root>
                <mxCell id="0"/>
                <mxCell id="1" parent="0"/>
                <mxCell id="2" value="" style="whiteSpace=wrap;strokeWidth=2;verticalAlign=bottom;" parent="1" vertex="1">
                    <mxGeometry x="134" y="-40" width="100" height="100" as="geometry"/>
                </mxCell>
                <mxCell id="3" value="" style="whiteSpace=wrap;strokeWidth=2;verticalAlign=bottom;glass=0;rounded=0;shadow=0;" parent="1" vertex="1">
                    <mxGeometry x="134" y="90" width="100" height="100" as="geometry"/>
                </mxCell>
                <mxCell id="4" value="" style="whiteSpace=wrap;strokeWidth=2;verticalAlign=bottom;" parent="1" vertex="1">
                    <mxGeometry x="134" y="210" width="100" height="100" as="geometry"/>
                </mxCell>
                <mxCell id="5" value="Preprocessing &amp; Augmentation" style="whiteSpace=wrap;strokeWidth=2;verticalAlign=bottom;" parent="1" vertex="1">
                    <mxGeometry x="280" y="210" width="100" height="100" as="geometry"/>
                </mxCell>
                <mxCell id="6" value="" style="whiteSpace=wrap;strokeWidth=2;verticalAlign=bottom;" parent="1" vertex="1">
                    <mxGeometry x="280" y="90" width="100" height="100" as="geometry"/>
                </mxCell>
                <mxCell id="7" value="" style="whiteSpace=wrap;strokeWidth=2;verticalAlign=bottom;" parent="1" vertex="1">
                    <mxGeometry x="280" y="-40" width="100" height="100" as="geometry"/>
                </mxCell>
                <mxCell id="8" value="" style="curved=1;startArrow=none;endArrow=block;exitX=0.5;exitY=1;entryX=0.5;entryY=0;" parent="1" source="2" target="3" edge="1">
                    <mxGeometry relative="1" as="geometry">
                        <Array as="points"/>
                    </mxGeometry>
                </mxCell>
                <mxCell id="9" value="" style="curved=1;startArrow=none;endArrow=block;exitX=0.5;exitY=1;entryX=0.5;entryY=0;" parent="1" source="3" target="4" edge="1">
                    <mxGeometry relative="1" as="geometry">
                        <Array as="points"/>
                    </mxGeometry>
                </mxCell>
                <mxCell id="10" value="" style="curved=1;startArrow=none;endArrow=block;exitX=1;exitY=0.5;exitDx=0;exitDy=0;" parent="1" source="4" target="5" edge="1">
                    <mxGeometry relative="1" as="geometry">
                        <Array as="points"/>
                    </mxGeometry>
                </mxCell>
                <mxCell id="11" value="" style="curved=1;startArrow=none;endArrow=block;exitX=0.5;exitY=0;entryX=0.5;entryY=1;exitDx=0;exitDy=0;entryDx=0;entryDy=0;" parent="1" source="5" target="6" edge="1">
                    <mxGeometry relative="1" as="geometry">
                        <Array as="points"/>
                    </mxGeometry>
                </mxCell>
                <mxCell id="12" value="" style="curved=1;startArrow=none;endArrow=block;exitX=0.25;exitY=0;entryX=0.25;entryY=1;exitDx=0;exitDy=0;entryDx=0;entryDy=0;" parent="1" source="6" target="7" edge="1">
                    <mxGeometry relative="1" as="geometry">
                        <Array as="points"/>
                    </mxGeometry>
                </mxCell>
                <mxCell id="13" value="" style="curved=1;dashed=1;dashPattern=2 3;startArrow=none;endArrow=block;exitX=1;exitY=0.5;entryX=1;entryY=0.5;exitDx=0;exitDy=0;entryDx=0;entryDy=0;" parent="1" source="7" target="5" edge="1">
                    <mxGeometry relative="1" as="geometry">
                        <Array as="points">
                            <mxPoint x="420" y="10"/>
                            <mxPoint x="420" y="260"/>
                        </Array>
                    </mxGeometry>
                </mxCell>
                <mxCell id="14" value="" style="curved=1;dashed=1;dashPattern=2 3;startArrow=none;endArrow=block;exitX=0.75;exitY=1;entryX=0.75;entryY=0;entryDx=0;entryDy=0;exitDx=0;exitDy=0;" parent="1" source="7" target="6" edge="1">
                    <mxGeometry relative="1" as="geometry">
                        <Array as="points"/>
                    </mxGeometry>
                </mxCell>
                <mxCell id="15" value="&lt;span&gt;Image&lt;/span&gt;&lt;div&gt;&lt;span&gt;Acqusition&lt;/span&gt;&lt;/div&gt;" style="image;aspect=fixed;html=1;points=[];align=center;fontSize=12;image=img/lib/azure2/ai_machine_learning/Face_APIs.svg;" vertex="1" parent="1">
                    <mxGeometry x="159" y="-30" width="50" height="50" as="geometry"/>
                </mxCell>
                <mxCell id="16" value="Manual&lt;br&gt;Annotation" style="sketch=0;pointerEvents=1;shadow=0;dashed=0;html=1;strokeColor=none;fillColor=#505050;labelPosition=center;verticalLabelPosition=bottom;verticalAlign=top;outlineConnect=0;align=center;shape=mxgraph.office.concepts.writing_pencil;" vertex="1" parent="1">
                    <mxGeometry x="159" y="100" width="50" height="50" as="geometry"/>
                </mxCell>
                <mxCell id="17" value="&lt;span style=&quot;color: rgb(0, 0, 0); text-wrap-mode: wrap;&quot;&gt;Dataset Organization&lt;/span&gt;" style="sketch=0;outlineConnect=0;fontColor=#232F3E;gradientColor=none;fillColor=#232F3D;strokeColor=none;dashed=0;verticalLabelPosition=bottom;verticalAlign=top;align=center;html=1;fontSize=12;fontStyle=0;aspect=fixed;pointerEvents=1;shape=mxgraph.aws4.folders;" vertex="1" parent="1">
                    <mxGeometry x="156.54" y="220" width="54.93" height="50" as="geometry"/>
                </mxCell>
                <mxCell id="18" value="&lt;span style=&quot;color: rgb(0, 0, 0); text-wrap-mode: wrap;&quot;&gt;Evaluation&amp;nbsp;&lt;/span&gt;&lt;span style=&quot;text-wrap-mode: wrap; background-color: transparent;&quot;&gt;&amp;amp; Benchmarking&lt;/span&gt;" style="sketch=0;aspect=fixed;pointerEvents=1;shadow=0;dashed=0;html=1;strokeColor=none;labelPosition=center;verticalLabelPosition=bottom;verticalAlign=top;align=center;fillColor=#00188D;shape=mxgraph.mscae.enterprise.performance_monitor" vertex="1" parent="1">
                    <mxGeometry x="298" y="-30" width="64" height="46.08" as="geometry"/>
                </mxCell>
                <mxCell id="19" value="Model&lt;br&gt;Development&lt;div&gt;&lt;br&gt;&lt;/div&gt;" style="sketch=0;outlineConnect=0;fontColor=#232F3E;gradientColor=none;fillColor=#01A88D;strokeColor=none;dashed=0;verticalLabelPosition=bottom;verticalAlign=top;align=center;html=1;fontSize=12;fontStyle=0;aspect=fixed;pointerEvents=1;shape=mxgraph.aws4.sagemaker_model;" vertex="1" parent="1">
                    <mxGeometry x="305" y="100" width="50" height="50" as="geometry"/>
                </mxCell>
                <mxCell id="24" value="" style="verticalLabelPosition=bottom;html=1;verticalAlign=top;align=center;strokeColor=none;fillColor=#00BEF2;shape=mxgraph.azure.automation;pointerEvents=1;" vertex="1" parent="1">
                    <mxGeometry x="305" y="222.5" width="50" height="50" as="geometry"/>
                </mxCell>
            </root>
        </mxGraphModel>
    </diagram>
</mxfile>